PathFileType	4	(X/Y/Z)	C:\Users\italobelli\Desktop\GitHub\PTbot_officialCBL\Personal_Results\FLX21_noisy2.trc
DataRate	CameraRate	NumFrames	NumMarkers	Units	OrigDataRate	OrigDataStartFrame	OrigNumFrames
107.000000	107.000000	47	9	m	107.000000	188	750
Frame#	Time		gu		centelbow		EpL		centpxt8		centijc7		ij		ts		aa		ai
			X1	Y1	Z1	X2	Y2	Z2	X3	Y3	Z3	X4	Y4	Z4	X5	Y5	Z5	X6	Y6	Z6	X7	Y7	Z7	X8	Y8	Z8	X9	Y9	Z9

188	1.7477	-0.086501	0.0603	0.11652	0.087763	0.19965	0.21937	0.068012	0.22312	0.21479	-0.046816	-0.15316	-0.008669	-0.046816	0.031938	-0.008669	0	0	0	-0.15129	-0.0097762	0.060895	-0.11029	0.079976	0.12613	-0.12461	-0.078353	0.14729
189	1.757	-0.086767	0.060331	0.11617	0.085655	0.20233	0.21848	0.06566	0.22554	0.21358	-0.046816	-0.15316	-0.008669	-0.046816	0.031938	-0.008669	0	0	0	-0.15099	-0.010192	0.060839	-0.11073	0.080131	0.12575	-0.12419	-0.078187	0.14764
190	1.7664	-0.08703	0.060359	0.11583	0.083553	0.20496	0.21758	0.063316	0.22792	0.21237	-0.046816	-0.15316	-0.008669	-0.046816	0.031938	-0.008669	0	0	0	-0.15068	-0.010606	0.060782	-0.11117	0.080282	0.12537	-0.12376	-0.078022	0.14799
191	1.7757	-0.087289	0.060386	0.11548	0.08146	0.20753	0.21667	0.060983	0.23025	0.21115	-0.046816	-0.15316	-0.008669	-0.046816	0.031938	-0.008669	0	0	0	-0.15038	-0.011018	0.060726	-0.1116	0.080428	0.12499	-0.12334	-0.077858	0.14833
192	1.785	-0.087543	0.060411	0.11515	0.079379	0.21006	0.21577	0.058664	0.23252	0.20994	-0.046816	-0.15316	-0.008669	-0.046816	0.031938	-0.008669	0	0	0	-0.15007	-0.011427	0.060671	-0.11204	0.080569	0.12463	-0.12291	-0.077694	0.14867
193	1.7944	-0.087794	0.060435	0.11481	0.077313	0.21253	0.21486	0.056362	0.23474	0.20874	-0.046816	-0.15316	-0.008669	-0.046816	0.031938	-0.008669	0	0	0	-0.14976	-0.011833	0.060616	-0.11247	0.080705	0.12426	-0.12248	-0.07753	0.149
194	1.8037	-0.08804	0.060456	0.11448	0.075264	0.21495	0.21396	0.054081	0.23691	0.20753	-0.046816	-0.15316	-0.008669	-0.046816	0.031938	-0.008669	0	0	0	-0.14944	-0.012235	0.060562	-0.11289	0.080837	0.1239	-0.12206	-0.077368	0.14933
195	1.8131	-0.088282	0.060476	0.11415	0.073236	0.21731	0.21305	0.051824	0.23902	0.20634	-0.046816	-0.15316	-0.008669	-0.046816	0.031938	-0.008669	0	0	0	-0.14913	-0.012632	0.060509	-0.11332	0.080963	0.12355	-0.12163	-0.077206	0.14964
196	1.8224	-0.088519	0.060494	0.11383	0.071232	0.21961	0.21215	0.049594	0.24108	0.20515	-0.046816	-0.15316	-0.008669	-0.046816	0.031938	-0.008669	0	0	0	-0.14882	-0.013026	0.060457	-0.11373	0.081085	0.1232	-0.1212	-0.077044	0.14995
197	1.8318	-0.088751	0.06051	0.11351	0.069255	0.22185	0.21126	0.047394	0.24307	0.20398	-0.046816	-0.15316	-0.008669	-0.046816	0.031938	-0.008669	0	0	0	-0.14851	-0.013414	0.060406	-0.11414	0.081201	0.12286	-0.12077	-0.076884	0.15026
198	1.8411	-0.088978	0.060524	0.11319	0.067307	0.22403	0.21037	0.045228	0.245	0.20281	-0.046816	-0.15316	-0.008669	-0.046816	0.031938	-0.008669	0	0	0	-0.14819	-0.013796	0.060357	-0.11455	0.081312	0.12252	-0.12035	-0.076724	0.15055
199	1.8505	-0.0892	0.060536	0.11288	0.065392	0.22615	0.20949	0.043098	0.24688	0.20166	-0.046816	-0.15316	-0.008669	-0.046816	0.031938	-0.008669	0	0	0	-0.14788	-0.014173	0.06031	-0.11495	0.081419	0.12219	-0.11992	-0.076565	0.15084
200	1.8598	-0.089416	0.060547	0.11258	0.063513	0.22819	0.20861	0.041009	0.24868	0.20053	-0.046816	-0.15316	-0.008669	-0.046816	0.031938	-0.008669	0	0	0	-0.14758	-0.014543	0.060264	-0.11534	0.08152	0.12187	-0.1195	-0.076406	0.15113
201	1.8692	-0.089627	0.060555	0.11227	0.061672	0.23017	0.20775	0.038963	0.25042	0.19941	-0.046816	-0.15316	-0.008669	-0.046816	0.031938	-0.008669	0	0	0	-0.14727	-0.014907	0.06022	-0.11572	0.081616	0.12155	-0.11908	-0.076249	0.1514
202	1.8785	-0.089832	0.060562	0.11198	0.059873	0.23208	0.2069	0.036964	0.2521	0.19832	-0.046816	-0.15316	-0.008669	-0.046816	0.031938	-0.008669	0	0	0	-0.14697	-0.015263	0.060177	-0.11609	0.081706	0.12125	-0.11866	-0.076092	0.15167
203	1.8879	-0.090032	0.060567	0.11169	0.058119	0.23392	0.20606	0.035014	0.2537	0.19725	-0.046816	-0.15316	-0.008669	-0.046816	0.031938	-0.008669	0	0	0	-0.14667	-0.015612	0.060137	-0.11646	0.081791	0.12094	-0.11824	-0.075936	0.15193
204	1.8972	-0.090225	0.06057	0.1114	0.056412	0.23568	0.20524	0.033118	0.25523	0.1962	-0.046816	-0.15316	-0.008669	-0.046816	0.031938	-0.008669	0	0	0	-0.14638	-0.015952	0.0601	-0.11681	0.081871	0.12065	-0.11782	-0.075781	0.15218
205	1.9065	-0.090411	0.060571	0.11112	0.054756	0.23737	0.20443	0.031278	0.2567	0.19517	-0.046816	-0.15316	-0.008669	-0.046816	0.031938	-0.008669	0	0	0	-0.14609	-0.016284	0.060064	-0.11715	0.081946	0.12037	-0.11741	-0.075627	0.15243
206	1.9159	-0.090592	0.06057	0.11084	0.053154	0.23898	0.20364	0.029497	0.25808	0.19417	-0.046816	-0.15316	-0.008669	-0.046816	0.031938	-0.008669	0	0	0	-0.1458	-0.016607	0.060032	-0.11749	0.082015	0.12009	-0.117	-0.075474	0.15267
207	1.9252	-0.090765	0.060567	0.11057	0.051608	0.24051	0.20287	0.027779	0.2594	0.1932	-0.046816	-0.15316	-0.008669	-0.046816	0.031938	-0.008669	0	0	0	-0.14552	-0.01692	0.060002	-0.11781	0.082078	0.11982	-0.11659	-0.075322	0.1529
208	1.9346	-0.090932	0.060563	0.1103	0.050122	0.24195	0.20212	0.026127	0.26063	0.19227	-0.046816	-0.15316	-0.008669	-0.046816	0.031938	-0.008669	0	0	0	-0.14525	-0.017224	0.059975	-0.11811	0.082136	0.11956	-0.11619	-0.07517	0.15312
209	1.9439	-0.091092	0.060556	0.11004	0.048699	0.24332	0.20139	0.024545	0.26179	0.19136	-0.046816	-0.15316	-0.008669	-0.046816	0.031938	-0.008669	0	0	0	-0.14498	-0.017517	0.059951	-0.11841	0.082188	0.11931	-0.11579	-0.07502	0.15334
210	1.9533	-0.091245	0.060548	0.10979	0.047341	0.2446	0.20068	0.023034	0.26286	0.19049	-0.046816	-0.15316	-0.008669	-0.046816	0.031938	-0.008669	0	0	0	-0.14472	-0.017799	0.05993	-0.11869	0.082234	0.11907	-0.1154	-0.074871	0.15355
211	1.9626	-0.09139	0.060537	0.10954	0.046052	0.24579	0.2	0.0216	0.26386	0.18966	-0.046816	-0.15316	-0.008669	-0.046816	0.031938	-0.008669	0	0	0	-0.14446	-0.01807	0.059912	-0.11895	0.082274	0.11884	-0.11501	-0.074722	0.15375
212	1.972	-0.091528	0.060525	0.1093	0.044834	0.2469	0.19934	0.020244	0.26477	0.18886	-0.046816	-0.15316	-0.008669	-0.046816	0.031938	-0.008669	0	0	0	-0.14422	-0.01833	0.059898	-0.1192	0.082309	0.11862	-0.11462	-0.074575	0.15394
213	1.9813	-0.091658	0.060511	0.10906	0.043691	0.24791	0.19871	0.018971	0.26559	0.1881	-0.046816	-0.15316	-0.008669	-0.046816	0.031938	-0.008669	0	0	0	-0.14398	-0.018577	0.059887	-0.11943	0.082338	0.11841	-0.11424	-0.074429	0.15413
214	1.9907	-0.09178	0.060494	0.10883	0.042626	0.24883	0.1981	0.017783	0.26633	0.18739	-0.046816	-0.15316	-0.008669	-0.046816	0.031938	-0.008669	0	0	0	-0.14375	-0.018812	0.05988	-0.11965	0.082361	0.11821	-0.11387	-0.074284	0.1543
215	2	-0.091894	0.060476	0.10861	0.041641	0.24966	0.19753	0.016684	0.26698	0.18672	-0.046816	-0.15316	-0.008669	-0.046816	0.031938	-0.008669	0	0	0	-0.14353	-0.019034	0.059877	-0.11985	0.082378	0.11802	-0.1135	-0.07414	0.15447
216	2.0093	-0.092004	0.060456	0.10839	0.0407	0.25044	0.19697	0.015634	0.26758	0.18607	-0.046816	-0.15316	-0.008669	-0.046816	0.031938	-0.008669	0	0	0	-0.14331	-0.019249	0.059879	-0.12004	0.082391	0.11784	-0.11313	-0.073997	0.15463
217	2.0187	-0.092114	0.060436	0.10817	0.039766	0.25121	0.19639	0.014593	0.26818	0.18542	-0.046816	-0.15316	-0.008669	-0.046816	0.031938	-0.008669	0	0	0	-0.14309	-0.019462	0.059885	-0.12023	0.082402	0.11766	-0.11276	-0.073853	0.1548
218	2.028	-0.092224	0.060415	0.10796	0.038838	0.25197	0.19581	0.013561	0.26878	0.18476	-0.046816	-0.15316	-0.008669	-0.046816	0.031938	-0.008669	0	0	0	-0.14287	-0.019674	0.059897	-0.12041	0.082412	0.11748	-0.11238	-0.073709	0.15496
219	2.0374	-0.092333	0.060394	0.10774	0.037917	0.25273	0.19522	0.012539	0.26937	0.1841	-0.046816	-0.15316	-0.008669	-0.046816	0.031938	-0.008669	0	0	0	-0.14265	-0.019884	0.059914	-0.1206	0.08242	0.1173	-0.11199	-0.073566	0.15513
220	2.0467	-0.092443	0.060372	0.10753	0.037004	0.25349	0.19462	0.011526	0.26996	0.18344	-0.046816	-0.15316	-0.008669	-0.046816	0.031938	-0.008669	0	0	0	-0.14242	-0.020093	0.059935	-0.12078	0.082426	0.11712	-0.11161	-0.073422	0.1553
221	2.0561	-0.092552	0.06035	0.10731	0.036098	0.25423	0.19401	0.010523	0.27055	0.18277	-0.046816	-0.15316	-0.008669	-0.046816	0.031938	-0.008669	0	0	0	-0.1422	-0.0203	0.059961	-0.12096	0.082431	0.11695	-0.11121	-0.073278	0.15546
222	2.0654	-0.09266	0.060327	0.1071	0.035201	0.25497	0.1934	0.0095299	0.27113	0.18211	-0.046816	-0.15316	-0.008669	-0.046816	0.031938	-0.008669	0	0	0	-0.14197	-0.020506	0.059991	-0.12114	0.082434	0.11678	-0.11082	-0.073135	0.15563
223	2.0748	-0.092768	0.060304	0.10689	0.034312	0.2557	0.19279	0.008548	0.2717	0.18145	-0.046816	-0.15316	-0.008669	-0.046816	0.031938	-0.008669	0	0	0	-0.14174	-0.020709	0.060025	-0.12131	0.082436	0.11661	-0.11042	-0.072991	0.15579
224	2.0841	-0.092875	0.06028	0.10669	0.033431	0.25643	0.19217	0.0075773	0.27227	0.18079	-0.046816	-0.15316	-0.008669	-0.046816	0.031938	-0.008669	0	0	0	-0.1415	-0.020911	0.060063	-0.12148	0.082437	0.11644	-0.11002	-0.072848	0.15596
225	2.0935	-0.092981	0.060256	0.10648	0.03256	0.25715	0.19154	0.006618	0.27284	0.18013	-0.046816	-0.15316	-0.008669	-0.046816	0.031938	-0.008669	0	0	0	-0.14127	-0.02111	0.060105	-0.12165	0.082437	0.11628	-0.10962	-0.072705	0.15612
226	2.1028	-0.093087	0.060231	0.10627	0.031699	0.25786	0.19092	0.0056706	0.2734	0.17947	-0.046816	-0.15316	-0.008669	-0.046816	0.031938	-0.008669	0	0	0	-0.14104	-0.021307	0.060149	-0.12182	0.082435	0.11612	-0.10921	-0.072563	0.15629
227	2.1121	-0.093192	0.060207	0.10607	0.030848	0.25856	0.19029	0.0047353	0.27395	0.17881	-0.046816	-0.15316	-0.008669	-0.046816	0.031938	-0.008669	0	0	0	-0.1408	-0.021501	0.060197	-0.12199	0.082433	0.11596	-0.1088	-0.07242	0.15645
228	2.1215	-0.093296	0.060182	0.10587	0.030007	0.25925	0.18967	0.0038127	0.2745	0.17816	-0.046816	-0.15316	-0.008669	-0.046816	0.031938	-0.008669	0	0	0	-0.14057	-0.021693	0.060248	-0.12215	0.08243	0.1158	-0.1084	-0.072278	0.15662
229	2.1308	-0.093398	0.060157	0.10567	0.029177	0.25993	0.18904	0.0029029	0.27504	0.17752	-0.046816	-0.15316	-0.008669	-0.046816	0.031938	-0.008669	0	0	0	-0.14033	-0.021883	0.060302	-0.12231	0.082425	0.11564	-0.10799	-0.072137	0.15678
230	2.1402	-0.0935	0.060131	0.10547	0.028358	0.26061	0.18842	0.0020064	0.27558	0.17688	-0.046816	-0.15316	-0.008669	-0.046816	0.031938	-0.008669	0	0	0	-0.1401	-0.022069	0.060358	-0.12247	0.08242	0.11549	-0.10758	-0.071996	0.15694
231	2.1495	-0.0936	0.060106	0.10528	0.02755	0.26128	0.18779	0.0011236	0.2761	0.17624	-0.046816	-0.15316	-0.008669	-0.046816	0.031938	-0.008669	0	0	0	-0.13986	-0.022253	0.060417	-0.12262	0.082415	0.11534	-0.10717	-0.071856	0.1571
232	2.1589	-0.093699	0.06008	0.10508	0.026755	0.26193	0.18717	0.00025476	0.27663	0.17561	-0.046816	-0.15316	-0.008669	-0.046816	0.031938	-0.008669	0	0	0	-0.13963	-0.022434	0.060478	-0.12278	0.082408	0.11519	-0.10676	-0.071716	0.15726
233	2.1682	-0.093797	0.060054	0.10489	0.025971	0.26258	0.18656	-0.0005997	0.27714	0.17499	-0.046816	-0.15316	-0.008669	-0.046816	0.031938	-0.008669	0	0	0	-0.1394	-0.022612	0.060541	-0.12293	0.082401	0.11505	-0.10635	-0.071577	0.15742
234	2.1776	-0.093893	0.060029	0.1047	0.025201	0.26322	0.18595	-0.0014394	0.27765	0.17438	-0.046816	-0.15316	-0.008669	-0.046816	0.031938	-0.008669	0	0	0	-0.13916	-0.022786	0.060605	-0.12307	0.082394	0.1149	-0.10594	-0.071438	0.15757
